# xmcd
#
# Track frame offsets:
#  150
#  19222
#  35645
#  56584
#  70335
#  89411
#  109092
#  125100
#  150769
#  164730
#  184649
#  206346
#  227708
#  253898
#  277100
#  293514
#  313315
#  336000
#
# Disc length: 4777 seconds
#
# Revision: 0
# Processed by: cddbd v1.5.1PL2 Copyright (c) Steve Scherf et al.
# Submitted via: Collectorz.com_Music_Collector 6.9
#
DISCID=0c12a712
DTITLE=Knopfler Mark/Emmylou Harris - All the roadrunning 
DYEAR=2006
DGENRE=Alternative Country
TTITLE0=Beachcombing
TTITLE1=This is us (Remix edits)
TTITLE2=I dug up a diamond
TTITLE3=Red staggerwing
TTITLE4=Rollin' on
TTITLE5=Love and happiness
TTITLE6=Right now
TTITLE7=Donkey town
TTITLE8=Belle starr
TTITLE9=Beyond my wildest dreams
TTITLE10=All the roadrunnig
TTITLE11=If this is goodbye
TTITLE12=bonus
TTITLE13=bonus
TTITLE14=bonus
TTITLE15=bonus
TTITLE16=bonus
TTITLE17=bonus
EXTD=
EXTT0=
EXTT1=
EXTT2=
EXTT3=
EXTT4=
EXTT5=
EXTT6=
EXTT7=
EXTT8=
EXTT9=
EXTT10=
EXTT11=
EXTT12=
EXTT13=
EXTT14=
EXTT15=
EXTT16=
EXTT17=
PLAYORDER=
